<?xml version="1.0" standalone="no"?><!DOCTYPE svg PUBLIC "-//W3C//DTD SVG 1.1//EN" "http://www.w3.org/Graphics/SVG/1.1/DTD/svg11.dtd"><svg t="1587873427477" class="icon" viewBox="0 0 1024 1024" version="1.1" xmlns="http://www.w3.org/2000/svg" p-id="1115" xmlns:xlink="http://www.w3.org/1999/xlink" width="300" height="300"><defs><style type="text/css"></style></defs><path d="M906.18 350.74h-167.9L607.51 219.97c7.47-14.62 12.03-30.91 12.03-48.43C619.54 112.12 571.42 64 512 64s-107.54 48.12-107.54 107.54c0 17.52 4.56 33.8 12.03 48.43L285.72 350.74h-167.9c-19.81 0-35.88 16.07-35.88 35.88v537.5c0 19.81 16.07 35.88 35.88 35.88h788.35c19.81 0 35.88-16.07 35.88-35.88v-537.5c0.01-19.81-16.06-35.88-35.87-35.88z m-437.94-81.2c13.38 6.02 28.11 9.44 43.76 9.44 15.66 0 30.39-3.52 43.76-9.44l81.2 81.2H387.04l81.2-81.2zM576.51 805.9H225.26c-23.75 0-43.03-19.29-43.03-43.03 0-23.75 19.28-43.04 43.03-43.04h351.25c23.75 0 43.03 19.29 43.03 43.04 0 23.74-19.28 43.03-43.03 43.03z m179.2-215.09H225.26c-23.75 0-43.03-19.29-43.03-43.03 0-23.75 19.28-43.04 43.03-43.04h530.45c23.75 0 43.03 19.29 43.03 43.04 0 23.85-19.28 43.03-43.03 43.03z" fill="#1296db" p-id="1116"></path></svg>