<?xml version="1.0" standalone="no"?><!DOCTYPE svg PUBLIC "-//W3C//DTD SVG 1.1//EN" "http://www.w3.org/Graphics/SVG/1.1/DTD/svg11.dtd"><svg t="1599733963386" class="icon" viewBox="0 0 1024 1024" version="1.1" xmlns="http://www.w3.org/2000/svg" p-id="6919" xmlns:xlink="http://www.w3.org/1999/xlink" width="128" height="128"><defs><style type="text/css"></style></defs><path d="M857.429333 128H681.472V76.458667c0-27.306667-24.234667-48.64-48.64-48.64H390.314667c-27.306667 0-48.64 21.162667-48.64 48.64V128h-175.786667c-27.306667 0-48.64 21.162667-48.64 48.64 0 27.306667 21.162667 48.64 48.64 48.64h691.541333c27.306667 0 48.64-21.162667 48.64-48.64-0.170667-24.405333-21.333333-48.64-48.64-48.64zM165.888 291.669333v630.784c0 42.496 33.450667 75.776 72.704 75.776h545.962667c42.496 0 72.704-33.450667 72.704-75.776V291.669333H165.888z m235.349333 248.32l66.389334-110.250666c1.706667-2.901333 4.778667-3.584 7.68-2.56h95.232c1.877333 0 4.608 1.365333 5.802666 3.242666l51.541334 84.650667 15.701333-9.898667c2.56-1.365333 5.802667-1.365333 7.850667 0.682667 1.877333 1.877333 2.56 5.290667 1.365333 7.850667l-35.84 65.877333c-1.365333 2.048-3.242667 3.242667-5.290667 3.242667l-78.848 3.242666c-2.56 0-5.290667-2.048-6.485333-4.608-0.682667-2.56 0.682667-5.973333 2.56-7.168l15.701333-9.898666-22.698666-37.888-38.229334 63.317333c-0.682667 1.365333-2.56 2.56-3.925333 3.242667H477.866667c-1.365333 0-2.56 0-3.242667-0.682667l-70.997333-43.690667c-3.754667-1.536-4.266667-5.461333-2.389334-8.704z m95.914667 243.2l-120.661333-0.682666 6.314666-12.629334-8.362666 15.701334c-1.365333 1.877333-3.242667 3.242667-5.973334 3.242666-2.56 0-4.437333-1.365333-5.802666-3.242666l-50.176-82.773334c-1.365333-1.877333-1.365333-4.608 0-6.485333l46.933333-88.064-16.384-8.533333c-2.56-1.365333-3.925333-4.437333-3.242667-7.168 0.682667-2.56 3.242667-5.290667 5.973334-5.290667l74.922666-3.242667c2.56 0 4.437333 1.365333 5.802667 3.242667l41.642667 63.829333c1.365333 1.365333 1.877333 2.56 1.877333 4.608 0 3.925333-2.56 6.485333-6.485333 6.485334-1.365333 0-1.877333 0-3.242667-0.682667l-16.384-8.533333-24.405333 46.250666 78.165333 1.024-0.512 82.944z m230.741333-78.165333l-50.176 82.773333c-1.365333 2.048-3.242667 3.242667-5.973333 3.242667h-98.986667v18.261333c0 3.242667-1.877333 5.290667-4.608 6.485334h-1.877333c-2.56 0-4.608-1.365333-5.973333-3.242667l-37.717334-65.194667c-1.365333-1.877333-1.365333-4.608 0-6.485333l37.717334-67.242667c1.365333-2.56 4.608-3.925333 7.168-3.242666 2.56 0.682667 4.437333 3.242667 4.437333 6.485333v18.261333h46.250667L583.68 628.736c-2.048-3.242667-0.682667-7.168 2.56-8.362667l73.728-38.570666c3.242667-2.048 7.168-0.682667 8.533333 2.56l59.392 114.005333c1.194667 2.048 1.194667 4.608 0 6.656z m0 0" p-id="6920" fill="#ffffff"></path></svg>