<?xml version="1.0" standalone="no"?><!DOCTYPE svg PUBLIC "-//W3C//DTD SVG 1.1//EN" "http://www.w3.org/Graphics/SVG/1.1/DTD/svg11.dtd"><svg t="1587694087374" class="icon" viewBox="0 0 1024 1024" version="1.1" xmlns="http://www.w3.org/2000/svg" p-id="984" xmlns:xlink="http://www.w3.org/1999/xlink" width="200" height="200"><defs><style type="text/css"></style></defs><path d="M802.133333 938.666667h126.293334v-819.2h68.266666v887.466666H221.866667c-112.64 0-204.8-78.506667-204.8-177.493333V204.8c0-112.64 92.16-204.8 204.8-204.8h628.053333v665.6H221.866667c-75.093333 0-136.533333 51.2-136.533334 109.226667v58.026666c0 58.026667 61.44 109.226667 136.533334 109.226667h580.266666zM85.333333 641.706667c37.546667-27.306667 85.333333-44.373333 136.533334-44.373334h559.786666V68.266667H221.866667C146.773333 68.266667 85.333333 129.706667 85.333333 204.8v436.906667zM170.666667 819.2v-68.266667h679.253333v68.266667H170.666667z" fill="#1296db" p-id="985"></path></svg>