<?xml version="1.0" standalone="no"?><!DOCTYPE svg PUBLIC "-//W3C//DTD SVG 1.1//EN" "http://www.w3.org/Graphics/SVG/1.1/DTD/svg11.dtd"><svg t="1592364250912" class="icon" viewBox="0 0 1170 1024" version="1.1" xmlns="http://www.w3.org/2000/svg" p-id="22650" xmlns:xlink="http://www.w3.org/1999/xlink" width="36.5625" height="32"><defs><style type="text/css"></style></defs><path d="M677.595 986.941V694.37h-183.93V987.72c-5.753 0.293-10.337 0.732-14.92 0.732H218.16c-29.843 0-49.932-19.164-50.079-50.86-0.585-120.392-0.39-240.883 0.147-361.227 0-6.34 4.827-14.483 9.703-18.822 78.556-69.437 157.55-138.435 236.495-207.434 52.517-45.982 104.936-91.964 157.501-137.85 4.048-3.559 8.192-6.972 13.361-11.361a56236.753 56236.753 0 0 1 93.623 81.823c102.79 89.916 205.385 180.028 308.419 269.653 11.069 9.557 15.799 19.31 15.701 34.816a44352.853 44352.853 0 0 0-0.243 342.796c0 20.821-4.828 38.863-22.09 50.322-6.29 4.194-14.19 7.802-21.357 7.802-92.16 0.537-184.369 0.293-276.48 0.244-1.366 0-2.78-0.634-5.267-1.365zM816.03 176.859V39.497c0-28.428 6.437-35.255 33.159-35.303l124.586 0.048c21.455 0.098 28.819 8.095 28.867 32.183 0.098 95.33 0.342 190.66-0.292 286.037-0.049 14.727 3.803 24.138 14.726 33.5 45.495 38.863 90.112 78.848 134.973 118.589 22.04 19.505 22.577 28.964 4.047 52.175-11.215 14.044-22.187 28.38-33.5 42.423-13.897 17.36-25.404 18.432-42.032 3.657L602.697 149.211c-5.559-4.876-11.215-9.654-17.652-15.262-35.84 31.695-71.387 63.05-106.788 94.5L90.356 572.222c-17.554 15.555-28.428 14.629-43.154-3.706-12.191-15.214-24.333-30.476-36.328-45.836-13.995-17.945-13.458-29.501 3.413-44.617 72.168-64.122 144.53-128 216.844-191.976 96.354-85.333 192.805-170.52 289.061-255.951 43.74-38.717 86.309-38.717 130.048 0.292 51.785 46.13 103.668 92.063 155.55 137.997 2.439 2.194 5.023 4.193 10.24 8.484z" fill="#4390E9" p-id="22651"></path></svg>