<?xml version="1.0" standalone="no"?><!DOCTYPE svg PUBLIC "-//W3C//DTD SVG 1.1//EN" "http://www.w3.org/Graphics/SVG/1.1/DTD/svg11.dtd"><svg t="1592991985766" class="icon" viewBox="0 0 1152 1024" version="1.1" xmlns="http://www.w3.org/2000/svg" p-id="27879" xmlns:xlink="http://www.w3.org/1999/xlink" width="36" height="32"><defs><style type="text/css"></style></defs><path d="M497.49457 409.410012l13.176 223.999996c0.746 12.686 11.252 22.59 23.958 22.589999h82.739998a24 24 0 0 0 23.957999-22.589999l13.176-223.999996c0.81-13.786-10.15-25.41-23.957999-25.41h-109.093998c-13.806 0-24.766 11.624-23.956 25.41zM660.000567 768.000005c0 46.391999-37.607999 83.999998-83.999998 83.999998s-83.999998-37.607999-83.999999-83.999998 37.607999-83.999998 83.999999-83.999998 83.999998 37.607999 83.999998 83.999998z m-0.846-720.029986c-36.865999-63.901999-129.373997-64.017999-166.307997 0L12.95458 880.026003C-23.88942 943.892002 22.23658 1024 96.108578 1024H1055.880559c73.729999 0 120.069998-79.985998 83.153999-143.973997L659.154567 47.970019zM106.382578 910.004002L565.606569 114.016018c4.618-8.004 16.17-8.004 20.788 0l459.223991 795.985984c4.616 8-1.158 17.996-10.394 17.996H116.776578c-9.234 0.002-15.008-9.994-10.394-17.994z" p-id="27880" fill="#d81e06"></path></svg>