<?xml version="1.0" standalone="no"?><!DOCTYPE svg PUBLIC "-//W3C//DTD SVG 1.1//EN" "http://www.w3.org/Graphics/SVG/1.1/DTD/svg11.dtd"><svg t="1587872984090" class="icon" viewBox="0 0 1024 1024" version="1.1" xmlns="http://www.w3.org/2000/svg" p-id="15494" xmlns:xlink="http://www.w3.org/1999/xlink" width="300" height="300"><defs><style type="text/css"></style></defs><path d="M510.686823 1024a112.229226 112.229226 0 0 1-55.014327-14.670487l-346.95702-205.38682A111.495702 111.495702 0 0 1 53.701149 708.584527V310.280802a111.495702 111.495702 0 0 1 55.014327-93.157593L455.672496 14.670487a112.962751 112.962751 0 0 1 110.028653 0l346.95702 202.452722a111.495702 111.495702 0 0 1 55.014327 95.358166v398.303725a111.495702 111.495702 0 0 1-55.014327 95.358166l-346.95702 200.252149a112.229226 112.229226 0 0 1-55.014326 17.604585z m0-953.581662a33.008596 33.008596 0 0 0-18.338109 5.134671L143.924645 278.739255a36.676218 36.676218 0 0 0-18.338109 31.541547v400.504298a36.676218 36.676218 0 0 0 18.338109 31.541548l346.95702 200.252149a36.676218 36.676218 0 0 0 36.676218 0l349.891117-200.252149a36.676218 36.676218 0 0 0 18.338109-31.541548V310.280802a36.676218 36.676218 0 0 0-18.338109-31.541547L529.024932 78.487106a33.008596 33.008596 0 0 0-18.338109-8.068768z" p-id="15495"></path><path d="M510.686823 730.590258a220.057307 220.057307 0 0 1-220.057307-220.057307 223.724928 223.724928 0 0 1 19.071633-90.223495 37.409742 37.409742 0 0 1 48.412608-18.338109 35.942693 35.942693 0 0 1 18.338109 48.412607 152.573066 152.573066 0 0 0-12.469914 60.148997 146.704871 146.704871 0 1 0 146.704871-146.704871 36.676218 36.676218 0 0 1 0-73.352435 220.057307 220.057307 0 0 1 0 440.114613z" p-id="15496"></path></svg>