<?xml version="1.0" standalone="no"?><!DOCTYPE svg PUBLIC "-//W3C//DTD SVG 1.1//EN" "http://www.w3.org/Graphics/SVG/1.1/DTD/svg11.dtd"><svg t="1587692160204" class="icon" viewBox="0 0 1024 1024" version="1.1" xmlns="http://www.w3.org/2000/svg" p-id="635" xmlns:xlink="http://www.w3.org/1999/xlink" width="200" height="200"><defs><style type="text/css"></style></defs><path d="M960 812.8h-64V448c0-185.6-134.4-345.6-313.6-377.6V64c0-38.4-25.6-64-64-64s-64 25.6-64 64v6.4C268.8 96 128 256 128 448v364.8H64v64h262.4C345.6 960 422.4 1024 512 1024s166.4-64 185.6-147.2H960v-64zM512 960c-57.6 0-102.4-38.4-121.6-83.2h236.8c-12.8 44.8-57.6 83.2-115.2 83.2z m-320-147.2V448c0-179.2 147.2-320 320-320s320 147.2 320 320v364.8H192z" fill="#0B70C0" p-id="636"></path></svg>