<?xml version="1.0" standalone="no"?><!DOCTYPE svg PUBLIC "-//W3C//DTD SVG 1.1//EN" "http://www.w3.org/Graphics/SVG/1.1/DTD/svg11.dtd"><svg t="1587694174714" class="icon" viewBox="0 0 1084 1024" version="1.1" xmlns="http://www.w3.org/2000/svg" p-id="2052" xmlns:xlink="http://www.w3.org/1999/xlink" width="211.71875" height="200"><defs><style type="text/css"></style></defs><path d="M497.302588 69.391059c28.672-12.649412 62.283294-10.842353 88.726588 0 22.528 9.276235 355.207529 152.033882 402.913883 172.574117 49.513412 21.323294 41.923765 58.428235 0 76.318118-41.923765 17.950118-372.856471 159.623529-398.878118 170.164706-35.779765 14.456471-64.271059 13.492706-92.762353 1.204706-25.840941-11.203765-380.205176-162.635294-412.310588-176.308706-32.165647-13.673412-31.864471-53.007059 0-66.861176 45.417412-19.757176 374.904471-160.587294 412.310588-177.091765zM129.807059 279.853176S503.567059 440.500706 519.830588 447.066353a54.211765 54.211765 0 0 0 44.754824 0c18.371765-7.770353 389.662118-167.273412 389.662117-167.273412L562.597647 111.495529c-9.035294-3.915294-30.659765-3.915294-39.755294 0L129.807059 279.853176zM978.341647 424.658824l18.974118 44.453647s-381.168941 163.358118-407.190589 173.778823c-35.779765 14.456471-64.210824 13.552941-92.762352 1.204706-25.780706-11.143529-409.961412-175.284706-409.961412-175.284706l18.432-44.15247s397.914353 170.345412 414.117647 176.850823a54.211765 54.211765 0 0 0 44.694588 0c18.432-7.710118 413.696-176.850824 413.696-176.850823z m0 154.322823l18.974118 44.513882s-381.168941 163.297882-407.190589 173.778824c-35.779765 14.456471-64.210824 13.552941-92.762352 1.204706-25.780706-11.203765-409.961412-175.284706-409.961412-175.284706l18.432-44.212706s397.914353 170.405647 414.117647 176.911059a54.211765 54.211765 0 0 0 44.694588 0c18.432-7.770353 413.696-176.911059 413.696-176.911059z m-0.180706 154.925177l18.974118 44.513882s-381.168941 163.297882-407.190588 173.778823c-35.779765 14.456471-64.271059 13.492706-92.762353 1.204706-25.840941-11.203765-410.021647-175.284706-410.021647-175.284706l18.492235-44.212705s397.854118 170.345412 414.057412 176.911058a54.211765 54.211765 0 0 0 44.754823 0c18.371765-7.770353 413.696-176.911059 413.696-176.911058z" fill="#2F8FF0" p-id="2053"></path></svg>