<?xml version="1.0" standalone="no"?><!DOCTYPE svg PUBLIC "-//W3C//DTD SVG 1.1//EN" "http://www.w3.org/Graphics/SVG/1.1/DTD/svg11.dtd"><svg t="1587872901819" class="icon" viewBox="0 0 1385 1024" version="1.1" xmlns="http://www.w3.org/2000/svg" p-id="15201" xmlns:xlink="http://www.w3.org/1999/xlink" width="405.76171875" height="300"><defs><style type="text/css"></style></defs><path d="M978.043 131.346c3.072 13.191 5.601 27.105 7.77 41.5-311.586 88.543-504.452 160.1-913.856 439.581-3.072 0 0-69.87 0-69.87 2.048-47.403-16.384-78.423 68.605-151.004l3.012-2.59V224.286c-9.035-90.17 72.641-81.435 72.641-81.435 64.51 0 64.51 29.092 64.51 63.967l2.65 38.97c85.712-89.746 182.988-185.517 248.16-201.178 108.6-26.02 282.674-56.98 349.593-39.512 34.694 9.034 58.185 31.32 74.508 62.28-170.038 2.892-386.696 95.048-385.01 106.372l7.71 87.519S753.012 160.98 977.983 131.226z m271.41 882.535c-7.83-97.156-132.693-114.804-85.953-205.997 46.741-91.253 220.032-309.658 220.032-537.34 0 0 19.576-56.618-60.474-56.618C759.457 166.34 0.7 709.644 0.7 755.18v76.616s-7.83 74.388 45.536 84.929l1203.216 97.156z" p-id="15202"></path></svg>