<?xml version="1.0" standalone="no"?><!DOCTYPE svg PUBLIC "-//W3C//DTD SVG 1.1//EN" "http://www.w3.org/Graphics/SVG/1.1/DTD/svg11.dtd"><svg t="1592363298648" class="icon" viewBox="0 0 1149 1024" version="1.1" xmlns="http://www.w3.org/2000/svg" p-id="9155" xmlns:xlink="http://www.w3.org/1999/xlink" width="35.90625" height="32"><defs><style type="text/css"></style></defs><path d="M1024 888.571429q10.857143-10.857143 25.714286-10.857143t25.714286 10.857143l73.142857 73.142857-51.428571 51.428571-47.428571-47.428571-47.428571 47.428571q-10.285714 10.857143-25.714286 10.857143t-25.714286-10.857143l-47.428571-47.428571-47.428571 47.428571q-10.857143 10.857143-25.714286 10.857143t-25.714286-10.857143l-47.428571-47.428571-47.428571 47.428571q-10.857143 10.857143-25.714286 10.857143t-25.714286-10.857143l-47.428571-47.428571-47.428571 47.428571q-10.857143 10.857143-25.714286 10.857143t-25.714286-10.857143l-47.428571-47.428571-47.428571 47.428571q-10.857143 10.857143-25.714286 10.857143t-25.714286-10.857143l-47.428571-47.428571-47.428571 47.428571q-10.857143 10.857143-25.714286 10.857143t-25.714286-10.857143l-47.428571-47.428571-47.428571 47.428571q-10.857143 10.857143-25.714286 10.857143t-25.714286-10.857143l-73.142857-73.142857 51.428571-51.428571 47.428571 47.428571 47.428571-47.428571q10.857143-10.857143 25.714286-10.857143t25.714286 10.857143l47.428571 47.428571 47.428571-47.428571q10.857143-10.857143 25.714286-10.857143t25.714286 10.857143l47.428571 47.428571 47.428571-47.428571q10.857143-10.857143 25.714286-10.857143t25.714286 10.857143l47.428571 47.428571 47.428571-47.428571q10.857143-10.857143 25.714286-10.857143t25.714286 10.857143l47.428571 47.428571 47.428571-47.428571q10.857143-10.857143 25.714286-10.857143t25.714286 10.857143l47.428571 47.428571 47.428571-47.428571q10.857143-10.857143 25.714286-10.857143t25.714286 10.857143l47.428571 47.428571zm-899.428571-21.714286q-10.857143 10.857143-25.714286 10.857143t-25.714286-10.857143l-73.142857-73.142857 51.428571-51.428571 47.428571 46.857143 47.428571-46.857143q10.857143-10.857143 25.714286-10.857143t25.714286 10.857143l47.428571 46.857143 36.571429-36.571429 0-167.428571-120-179.428571q-9.714286-14.857143-4-32.285714t22.857143-23.142857l101.142857-33.142857 0-170.857143 73.142857 0 0-73.142857 146.285714 0 0-73.142857 146.285714 0 0 73.142857 146.285714 0 0 73.142857 73.142857 0 0 170.857143 101.142857 33.142857q17.142857 5.714286 22.857143 23.142857t-4 32.285714l-120 179.428571 0 167.428571 10.857143-10.285714q10.857143-10.857143 25.714286-10.857143t25.714286 10.857143l47.428571 46.857143 47.428571-46.857143q10.857143-10.857143 25.714286-10.857143t25.714286 10.857143l73.142857 73.142857-51.428571 51.428571-47.428571-47.428571-47.428571 47.428571q-10.285714 10.857143-25.714286 10.857143t-25.714286-10.857143l-47.428571-47.428571-47.428571 47.428571q-10.857143 10.857143-25.714286 10.857143t-25.714286-10.857143l-47.428571-47.428571-47.428571 47.428571q-10.857143 10.857143-25.714286 10.857143t-25.714286-10.857143l-47.428571-47.428571-47.428571 47.428571q-10.857143 10.857143-25.714286 10.857143t-25.714286-10.857143l-47.428571-47.428571-47.428571 47.428571q-10.857143 10.857143-25.714286 10.857143t-25.714286-10.857143l-47.428571-47.428571-47.428571 47.428571q-10.857143 10.857143-25.714286 10.857143t-25.714286-10.857143l-47.428571-47.428571zm230.285714-647.428571l0 73.142857 219.428571-73.142857 219.428571 73.142857 0-73.142857-73.142857 0 0-73.142857-292.571429 0 0 73.142857-73.142857 0z" p-id="9156"></path></svg>