<?xml version="1.0" standalone="no"?><!DOCTYPE svg PUBLIC "-//W3C//DTD SVG 1.1//EN" "http://www.w3.org/Graphics/SVG/1.1/DTD/svg11.dtd"><svg t="1587863358451" class="icon" viewBox="0 0 1024 1024" version="1.1" xmlns="http://www.w3.org/2000/svg" p-id="2949" width="200" height="200" xmlns:xlink="http://www.w3.org/1999/xlink"><defs><style type="text/css"></style></defs><path d="M661.311544 234.341869c-15.941624-1.594162-39.854059-9.564974-55.795683-38.259897-19.129949-31.883248-14.347461-57.389846-7.970812-74.925631 7.970812-19.129949 0-41.448222-17.535786-51.013196l-111.591367-63.766495c-17.535786-9.564974-39.854059-6.37665-52.607358 7.970811-12.753299 12.753299-31.883248 28.694923-65.360658 28.694923s-52.607358-15.941624-65.360657-28.694923c-14.347461-14.347461-35.071572-17.535786-52.607358-7.970811l-111.591367 65.360657c-17.535786 9.564974-25.506598 31.883248-17.535786 51.013196s14.347461 49.419034-1.594162 73.331469c-15.941624 25.506598-43.042384 36.665735-63.766495 39.85406-19.129949 3.188325-35.071572 20.724111-35.071573 41.448222v124.344665c0 22.318273 17.535786 39.854059 39.85406 41.448222 17.535786 1.594162 41.448222 6.37665 58.984008 28.694922 20.724111 28.694923 12.753299 62.172333 1.594162 86.084769-7.970812 19.129949-1.594162 43.042384 17.535786 52.607358l108.403042 60.578171c19.129949 11.159137 43.042384 4.782487 55.795683-12.753299 11.159137-15.941624 30.289085-36.665735 63.766495-35.071573 33.47741 1.594162 54.201521 19.129949 65.360658 36.665735 7.970812 12.753299 22.318273 19.129949 35.071572 19.129948 6.37665 0 14.347461-1.594162 22.318273-4.782487l111.591366-63.766495c17.535786-9.564974 25.506598-30.289085 19.129949-49.419033-6.37665-20.724111-11.159137-51.013196 6.37665-78.113957 15.941624-25.506598 39.854059-33.47741 55.795683-36.665735 19.129949-3.188325 35.071572-20.724111 35.071572-41.448221v-127.53299c0-22.318273-17.535786-41.448222-38.259897-43.042385z m4.782487 168.981212c0 4.782487-3.188325 9.564974-7.970812 11.159137-22.318273 3.188325-54.201521 14.347461-76.519794 49.419034-25.506598 39.854059-17.535786 82.896444-9.564974 105.214716 1.594162 4.782487-1.594162 11.159137-4.782487 12.753299l-111.591367 63.766496c-4.782487 3.188325-12.753299 1.594162-15.941623-3.188325-20.724111-30.289085-52.607358-47.824871-89.273094-49.419034h-1.594162c-36.665735 0-66.95482 15.941624-87.678931 46.230709-3.188325 4.782487-9.564974 7.970812-15.941623 4.782487l-108.403042-62.172333c-4.782487-1.594162-6.37665-7.970812-4.782487-14.347461 19.129949-44.636547 17.535786-86.084768-6.37665-116.373853-25.506598-31.883248-58.984008-39.854059-82.896443-39.85406-6.37665 0-11.159137-4.782487-11.159137-11.159136v-124.344666c0-4.782487 3.188325-9.564974 7.970812-11.159136 27.10076-4.782487 63.766495-17.535786 86.084768-52.607359C144.802934 184.922836 144.802934 149.851263 130.455473 111.591366c-1.594162-4.782487 0-9.564974 4.782487-12.753299l113.185528-65.360657c4.782487-3.188325 11.159137-1.594162 14.347462 1.594162 15.941624 17.535786 44.636547 38.259897 87.67893 38.259897 44.636547 0 71.737307-20.724111 87.678931-38.259897 4.782487-1.594162 9.564974-3.188325 14.347462-1.594162l111.591366 65.360657c4.782487 3.188325 6.37665 7.970812 4.782487 14.347462-9.564974 22.318273-15.941624 60.57817 7.970812 100.432229 22.318273 39.854059 55.795683 49.419034 79.708119 52.607359 4.782487 0 9.564974 4.782487 9.564974 11.159137v125.938827z" fill="#040000" p-id="2950"></path><path d="M404.651401 207.241109c-35.071572-14.347461-73.331469-15.941624-108.403041-1.594162-36.665735 14.347461-63.766495 41.448222-78.113957 76.519794-14.347461 35.071572-15.941624 73.331469-1.594162 108.403041 14.347461 36.665735 41.448222 63.766495 76.519794 78.113957 19.129949 7.970812 36.665735 12.753299 55.795683 12.753299 19.129949 0 36.665735-3.188325 51.013196-11.159137 7.970812-3.188325 12.753299-12.753299 7.970812-19.129948-3.188325-7.970812-12.753299-12.753299-19.129948-7.970812-28.694923 11.159137-58.984008 11.159137-86.084769-1.594163-27.10076-11.159137-49.419034-31.883248-60.57817-60.57817-11.159137-28.694923-11.159137-58.984008 1.594162-86.084768 11.159137-27.10076 31.883248-49.419034 60.578171-60.578171 28.694923-11.159137 58.984008-11.159137 86.084768 1.594163 27.10076 11.159137 49.419034 31.883248 60.57817 60.57817 7.970812 20.724111 9.564974 43.042384 4.782487 65.360657-1.594162 7.970812 3.188325 15.941624 12.753299 19.129949 7.970812 1.594162 15.941624-3.188325 19.129949-12.753299 6.37665-27.10076 4.782487-55.795683-6.37665-82.896444-14.347461-35.071572-41.448222-62.172333-76.519794-78.113956z" fill="#040000" p-id="2951"></path><path d="M863.770166 1001.133973c0-11.159137 6.37665-27.10076 25.506598-38.259898 20.724111-12.753299 38.259897-9.564974 49.419033-4.782487 12.753299 4.782487 27.10076 0 33.47741-11.159136l43.042385-74.925632c6.37665-11.159137 4.782487-25.506598-6.37665-35.071572-7.970812-7.970812-19.129949-22.318273-19.129948-43.042384s9.564974-35.071572 19.129948-43.042385c9.564974-9.564974 11.159137-22.318273 4.782487-35.071572l-43.042384-74.925632c-6.37665-11.159137-20.724111-15.941624-33.47741-11.159136-12.753299 4.782487-31.883248 9.564974-47.824871 0-17.535786-9.564974-23.912436-28.694923-25.506598-43.042384-1.594162-12.753299-14.347461-22.318273-27.100761-22.318274h-82.896443c-14.347461 0-27.10076 11.159137-27.100761 27.100761 0 11.159137-4.782487 27.10076-19.129948 38.259897-19.129949 14.347461-41.448222 7.970812-57.389846 1.594162-12.753299-6.37665-28.694923 0-35.071572 11.159137L575.226776 714.184745c-7.970812 12.753299-3.188325 28.694923 7.970811 36.665734 11.159137 7.970812 23.912436 20.724111 22.318274 43.042385 0 22.318273-12.753299 36.665735-23.912436 43.042384-7.970812 6.37665-12.753299 14.347461-12.753299 22.318273 0 4.782487 0 9.564974 3.188325 14.347461l43.042384 73.33147c6.37665 11.159137 20.724111 17.535786 31.883248 12.753299 14.347461-4.782487 33.47741-7.970812 52.607358 4.782487 15.941624 11.159137 22.318273 25.506598 23.912436 36.665735 1.594162 12.753299 14.347461 22.318273 27.10076 22.318273h84.490606c15.941624 3.188325 27.10076-7.970812 28.694923-22.318273z m-111.591367 3.188324c-3.188325 0-6.37665-1.594162-7.970811-6.376649-1.594162-14.347461-9.564974-36.665735-31.883248-51.013196-25.506598-15.941624-54.201521-11.159137-70.143145-6.37665-3.188325 0-7.970812 0-7.970811-3.188325L591.168399 864.036008c-1.594162-3.188325-1.594162-7.970812 1.594163-9.564974 20.724111-14.347461 31.883248-35.071572 31.883247-58.984008v-1.594162c0-23.912436-11.159137-44.636547-30.289085-57.389846-3.188325-3.188325-4.782487-6.37665-3.188325-11.159137l41.448222-71.737307c1.594162-3.188325 6.37665-4.782487 9.564974-3.188324 30.289085 12.753299 57.389846 11.159137 76.519794-4.782487 20.724111-15.941624 25.506598-38.259897 27.100761-54.201521 0-4.782487 3.188325-7.970812 7.970812-7.970812h82.896443c3.188325 0 6.37665 1.594162 7.970812 6.376649 3.188325 17.535786 11.159137 43.042384 35.071573 57.389846 17.535786 11.159137 41.448222 12.753299 66.954819 1.594162 3.188325-1.594162 6.37665 0 7.970812 3.188325l43.042384 74.925632c1.594162 3.188325 1.594162 7.970812-1.594162 9.564974-11.159137 11.159137-25.506598 30.289085-25.506598 58.984008 0 30.289085 14.347461 47.824871 25.506598 58.984008 1.594162 3.188325 3.188325 6.37665 1.594162 9.564974l-43.042384 73.331469c-1.594162 3.188325-6.37665 4.782487-9.564974 3.188325-14.347461-6.37665-39.854059-9.564974-66.95482 6.37665-25.506598 14.347461-33.47741 38.259897-35.071572 52.607358 0 3.188325-3.188325 6.37665-7.970812 6.37665h-82.896444z" fill="#040000" p-id="2952"></path><path d="M881.305952 832.152761c9.564974-22.318273 9.564974-47.824871 0-71.737307s-27.10076-41.448222-51.013196-52.607359c-22.318273-9.564974-47.824871-9.564974-71.737307 0s-41.448222 27.10076-52.607359 51.013196c-4.782487 12.753299-7.970812 23.912436-7.970811 38.259897 0 12.753299 1.594162 23.912436 7.970811 33.47741 1.594162 4.782487 7.970812 7.970812 12.753299 6.37665 4.782487-1.594162 7.970812-7.970812 6.37665-12.753299-7.970812-19.129949-7.970812-38.259897 0-57.389846 7.970812-17.535786 22.318273-31.883248 39.854059-39.854059 19.129949-7.970812 38.259897-7.970812 57.389846 0 17.535786 7.970812 31.883248 22.318273 39.854059 39.854059 7.970812 19.129949 7.970812 38.259897 0 57.389846-7.970812 17.535786-22.318273 31.883248-39.854059 39.854059-14.347461 6.37665-28.694923 6.37665-43.042384 3.188325-6.37665 0-11.159137 1.594162-12.753299 7.970812 0 6.37665 1.594162 11.159137 7.970812 12.753299 17.535786 4.782487 38.259897 3.188325 54.20152-4.782487 23.912436-9.564974 43.042384-28.694923 52.607359-51.013196z" fill="#040000" p-id="2953"></path></svg>